<mxfile host="app.diagrams.net" modified="2024-02-02T00:36:55.493Z" agent="Mozilla/5.0 (Windows NT 10.0; Win64; x64) AppleWebKit/537.36 (KHTML, like Gecko) Chrome/120.0.0.0 Safari/537.36 Edg/120.0.0.0" version="23.1.1" etag="_8oHocdlCYoM1lXminYZ" type="github">
  <diagram name="Page-1" id="2uF73EtURXSNx12-mFOn">
    <mxGraphModel>
      <root>
        <mxCell id="0" />
        <mxCell id="1" parent="0" />
      </root>
    </mxGraphModel>
  </diagram>
</mxfile>
